<?xml version="1.0" encoding="UTF-8" standalone="no"?><!DOCTYPE svg PUBLIC "-//W3C//DTD SVG 1.1//EN" "http://www.w3.org/Graphics/SVG/1.1/DTD/svg11.dtd"><svg xmlns="http://www.w3.org/2000/svg" xmlns:xlink="http://www.w3.org/1999/xlink"><symbol viewBox="0 0 48 48" id="apps"><path d="M15.9 24.9h7v7h-7zM24.9 16.1h7.2v7h-7.2zM15.9 16.1h7v7h-7z"/><path d="M33.3 11.1H14.7c-1.9 0-3.6 1.7-3.6 3.6v18.6c0 1.9 1.7 3.6 3.6 3.6h18.6c1.9 0 3.6-1.7 3.6-3.6V14.7c0-1.9-1.7-3.6-3.6-3.6zm1 22.2c0 .6-.4 1-1 1H14.7c-.6 0-1-.4-1-1V14.7c0-.6.4-1 1-1h18.6c.6 0 1 .4 1 1v18.6z"/></symbol><symbol viewBox="0 0 48 48" id="balloon"><path d="M32 11.5H15c-2 0-3.5 1.6-3.5 3.5v12.7c0 2 1.6 3.5 3.5 3.5h14.2L33 35l2.4 2.4V14.9c.1-1.8-1.5-3.4-3.4-3.4zm.6 19.2l-1.8-1.9-.4-.4H15c-.4 0-.7-.3-.7-.7V15c0-.4.3-.7.7-.7h17c.4 0 .7.3.7.7v15.7z"/></symbol><symbol viewBox="0 0 48 48" id="bookmark"><path d="M33.3 35.5l-9.3-4-9.3 4V14.2c0-1.5 1.2-2.7 2.7-2.7h13.3c1.5 0 2.7 1.2 2.7 2.7v21.3z"/></symbol><symbol viewBox="0 0 48 48" id="camera"><circle cx="24" cy="23.7" r="4"/><path d="M20.3 11.3L18 13.8h-3.9c-1.4 0-2.5 1.1-2.5 2.5v14.9c0 1.4 1.1 2.5 2.5 2.5H34c1.4 0 2.5-1.1 2.5-2.5V16.3c0-1.4-1.1-2.5-2.5-2.5h-4l-2.3-2.5h-7.4zM24 30c-3.4 0-6.2-2.8-6.2-6.2s2.8-6.2 6.2-6.2 6.2 2.8 6.2 6.2S27.4 30 24 30z"/></symbol><symbol viewBox="0 0 48 48" id="close"><path d="M35.2 15.1l-2.3-2.3-8.9 8.9-8.9-8.9-2.3 2.3 8.9 8.9-8.9 8.9 2.3 2.3 8.9-8.9 8.9 8.9 2.3-2.3-8.9-8.9 8.9-8.9z"/></symbol><symbol viewBox="0 0 48 48" id="down"><path d="M33.2 18.6l2.8 2.8-12 12-12-12 2.8-2.8 9.2 9.1z"/></symbol><symbol viewBox="0 544.2 595.3 297.6" id="economist"><path fill="#E3120B" d="M0 544.2h595.3v297.6H0z"/><path fill="#FFF" d="M276.1 622.8c-.3-8.4-2-9.5-14.7-9.5h-2.7v48.1c0 6.6 1.7 8.4 8.2 8.5l.2 2.3c-6.2-.1-10.8-.1-13.9-.1-3.1 0-8 0-14.4.1l.2-2.3c6.5-.2 8.2-1.9 8.2-8.5v-48.1H244c-13 0-14.8 1.2-14.9 9.5l-3.3-.2.3-13.6c12 .1 20.9.2 26.8.2 5.7 0 14.4-.1 25.9-.2l.3 13.6-3 .2zm44.7 49.1c-2.4 0-6 .2-10.9.3l.2-2.1c4.7-.7 5.1-1.6 5.2-9.4v-13.3c0-11.1-1.9-14.8-7.7-14.8-3.3 0-6.6 2-8 5.1-.5 1-.9 2.2-1.2 3.4-.1.4-.1.8-.1 1v18.7c0 7.8.5 8.7 5.2 9.4l.2 2.1c-4.9-.2-8.5-.3-11-.3-2.6 0-6.4.2-11.5.3l.2-2.1c5.9 0 6.7-1.2 6.8-9.4v-40.2c-.1-8.3-.9-9.4-6.8-9.4l-.2-2.1c8-.4 9.8-.7 17-2v27.3c4.7-5.2 8.6-7.2 13.8-7.2 8.6 0 13.4 5.5 13.4 15.5v18.2c.1 8.3.9 9.4 6.8 9.4l.2 2.1c-5.2-.3-9.1-.5-11.6-.5zm28-24.4c.3 13.4 5.2 20.9 13.3 20.9 4.8 0 8.9-2.2 13.2-7.2l1.3 2.4c-5.5 6.7-10.8 9.6-17.8 9.6-12.2 0-20.5-9-20.5-22.3 0-14.2 8.5-24 20.9-24 6.7 0 11.5 2.4 14.8 7.8 2.2 3.7 2.8 6.2 2.9 12.6l-28.1.2zm8.7-17.4c-5.3 0-8 4.4-8.9 14 8.1-.2 10.6-.3 18.7-1.2-1.1-8.6-4.3-12.8-9.8-12.8zM77.8 755.7c11 0 14.2-2.4 15.2-11.9l3.9.2-2.3 16.4-7.5.1-23.9-.2-16.2.1.3-2.6c7.1-.2 9-2.2 9-9.5v-46.1c0-7.3-1.9-9.2-9-9.5l-.3-2.6 15.1.2 23.9-.2 6.2.1.4 14.4-3.9.3c-.7-8.9-2.3-9.8-16.4-9.8h-2.2l-1 .1v26.5c1.9 0 3.3.1 4.2.1 1.6.1 3 .2 4.5.2 7.8 0 9.5-1.7 9.7-9.1h3.3c-.3 5.9-.3 9-.3 11.9 0 2.3 0 5.6.1 10.1h-3.1c-.4-7-2-8.4-9.5-8.5l-5.3-.1-3.7.2v20.6c.1 8.2.6 8.6 8.8 8.6zm54.5-42c-7.3 0-11.1 6.5-11.1 19.1 0 14.8 4.6 23.1 12.8 23.1 4.3 0 7.9-1.9 11.7-5.9l1.5 3.5c-5.6 5.8-10.2 8-16.6 8-12.8 0-21.3-10.1-21.3-25.3 0-15.8 8.9-25.9 22.9-25.9 3.7 0 7.5.7 13.4 2.3l.2 11.7-4.4.3c-1.6-8.9-3.4-10.9-9.1-10.9zm49.1 47.8c-14 0-23.3-9.4-23.8-23.7v-1.5c0-16.5 8.9-26 24.1-26 14.1 0 24.1 10.5 24.1 25.6 0 15.3-9.6 25.6-24.4 25.6zm-1.1-47.5c-7.2 0-10.8 6.2-10.8 18.3 0 1.5 0 2.9.2 4.4 1 14 5.6 21.5 13.1 21.5 7 0 11.2-7.3 11.2-19.6 0-14.5-5.7-24.6-13.7-24.6zm69.1 46.4l.2-2.3c5.2-.8 5.8-1.7 5.8-10.5l.1-6.2v-8.7c0-12.3-2.3-16.4-8.6-16.4-3.8 0-7 2-9 5.6-.8 1.5-1.5 3.8-1.5 4.8v20.8c.1 8.7.6 9.7 5.8 10.5l.3 2.3c-5.3-.2-19.2-.2-25 0l.2-2.3c6.5 0 7.5-1.3 7.5-10.5V724.9c0-9.1-1-10.3-7.5-10.4l-.2-2.3c8.7-.5 10.6-.8 18-2.3l.5 8.8c5.6-6.2 9.8-8.5 15.8-8.5 9.5 0 14.8 6.2 14.8 17.1V747.5c-.1.8-.1 1.6-.1 2.3 0 6.2 1.6 8.1 7.6 8.1l.2 2.3c-5.8 0-19.7 0-24.9.2zm57.4 1.1c-14 0-23.3-9.4-23.8-23.7v-1.5c0-16.5 8.9-26 24.1-26 14.1 0 24.1 10.5 24.1 25.6-.1 15.3-9.7 25.6-24.4 25.6zm-1.2-47.5c-7.1 0-10.8 6.2-10.8 18.3 0 1.5 0 2.9.2 4.4 1 14 5.6 21.5 13.1 21.5 7 0 11.2-7.3 11.2-19.6 0-14.5-5.7-24.6-13.7-24.6zm98.5 46.4l.2-2.3c5.2-.8 5.6-1.7 5.8-10.5V732.7c0-12.1-2.2-16.4-8.2-16.4-3.6 0-7.3 2.3-8.9 5.6-.5 1.2-1 2.3-1.3 3.7-.1.5-.2.9-.2 1v20.8c0 8.7.6 9.7 5.8 10.5l.2 2.3c-5.3-.2-18.1-.2-23.1 0l.2-2.3c5.2-.8 5.6-1.7 5.8-10.5V732.5c0-12.1-2.2-16.4-8.2-16.4-3.7 0-7 2.2-8.9 5.6-.8 1.6-1.5 3.8-1.5 4.8v20.8c.1 8.7.6 9.7 5.8 10.5l.2 2.3c-5.2-.2-19.1-.2-24.9 0l.2-2.3c6.5 0 7.5-1.3 7.5-10.5V724.7c0-9.1-1-10.3-7.5-10.4l-.2-2.3c8.7-.5 10.6-.8 18-2.3l.5 8.8c5.6-6.2 9.8-8.5 15.6-8.5 6.6 0 10.5 2.7 13.5 9.2 5.9-6.8 10.3-9.2 16.3-9.2 9.2 0 14.5 6.2 14.5 17.1V747.3c0 .8-.1 1.6-.1 2.3 0 6.2 1.7 8.1 7.6 8.1l.2 2.3c-6 .2-19.7.2-24.9.4zm47.5-.4c-2.9 0-7.3.2-13.3.4l.2-2.3c6.5 0 7.5-1.3 7.5-10.4l.1-6.2v-10.2l-.1-6.2c0-9.1-1-10.3-7.5-10.4l-.2-2.3c9-.6 11-.9 18.9-2.3v31.5l.1 6.2c0 9.2.9 10.4 7.5 10.4l.2 2.3c-6-.3-10.4-.5-13.4-.5zm-.4-59.7c-3.7 0-6.5-2.8-6.5-6.6 0-3.7 2.9-6.6 6.5-6.6s6.5 3 6.5 6.6c0 3.7-2.8 6.6-6.5 6.6zm41.7 13.4c-4.4 0-7.5 2.5-7.5 6.2 0 3.4 1.6 5.5 6.6 8.7 4.6 3 8.2 5.8 10.6 7.9 2.7 2.6 4.3 5.9 4.3 9.8 0 8.7-7.3 15.3-16.7 15.3-3.6 0-7-.8-13.3-2.8l-.4-9.9 5-.2c2.3 7.5 3.7 9 8.9 9 4.5 0 7.4-2.3 7.4-5.9 0-3.3-2-5.9-8.2-10.1-3.1-2.2-5.3-3.6-6.5-4.5-2.6-2-4.4-4.3-5.3-6.9-.6-1.5-.9-3.2-.9-5.3 0-8.9 6-14.6 15.2-14.6 3.4 0 5.3.3 13.3 2.2l.2 9.8-5 .2c-1.1-6.7-3.1-8.9-7.7-8.9zm49.9 42.7c1.6 0 3-.2 5.3-.9v2.8c-3.3 1.9-7.9 2.9-12.6 2.9-4.3 0-8.4-2.4-10.2-6-1.5-3-1.9-6-1.9-12.7v-25h-6.2v-4.4c7.7-.6 10.7-3.9 13-14.1h4.4v13.2H547l-1.3 5.3h-10.9v24c-.2 12.1 1.4 14.9 8 14.9z"/></symbol><symbol viewBox="0 0 1024 1024" id="economist-small"><path fill="#E3120B" d="M0 0h1024v1024H0z"/><path fill="#FFF" d="M341.6 723.4c40.1-.7 49.5-11.1 49.5-50.6V352.6c0-39.5-9.4-50.6-49.5-51.3v-29.1h325.5l7.4 110.9h-40.1c-14.7-52.7-23.4-68.6-66.8-68.6h-90.2V485H528c41.4 0 53.5-9.7 56.1-49.2h36.1v139.3h-36.1c-2.7-37.4-14-49.2-55.5-49.2h-51.5V711h96.2c47.5 0 62.2-15.9 67.5-80.4h41.4v121.3H341.6v-28.5z"/></symbol><symbol viewBox="0 0 48 48" id="facebook"><path d="M29.6 15.2H27c-.7 0-1.3.1-1.4.6-.1.3-.3.7-.3 1.4v2.1h4.3L29 24h-3.8v13.5h-5.5V24H17v-4.7h2.7v-2.8c0-2.8 1-4.7 3-5.5 1-.4 1.7-.4 2.7-.4h4.3v4.6z"/></symbol><symbol viewBox="0 0 48 48" id="film"><path d="M33 10.5v3h-3v-3H18v3h-3v-3h-3v27h3v-3h3v3h12v-3h3v3h3v-27h-3zm-15 21h-3v-3h3v3zm0-6h-3v-3h3v3zm0-6h-3v-3h3v3zm15 12h-3v-3h3v3zm0-6h-3v-3h3v3zm0-6h-3v-3h3v3z"/></symbol><symbol viewBox="0 0 48 48" id="googleplus"><path d="M27.7 24.2c0 1.7-.6 3.5-1.7 5.2-1.1 1.7-2.7 2.7-4.6 3.2-1.1.3-2.2.4-3.3.4-2-.1-3.6-.7-5.2-1.8-1.3-.8-2.1-2-2.8-3.3-.6-1-.8-2-1-3.1-.1-.6-.1-1.3-.1-1.9.1-1.7.6-3.2 1.5-4.6 1.4-2.1 3.2-3.3 5.7-4 .6-.1 1-.1 1.5-.3H19c1.1 0 2.2.3 3.3.8.8.4 1.5.8 2.2 1.4.1 0 .1.1.3.3l-.3.3c-.8.8-1.7 1.5-2.4 2.4-.1.1-.1.1-.3 0-.7-.7-1.5-1.1-2.5-1.3-1.5-.3-2.9.1-4.2 1-1.3 1-2.1 2.2-2.2 3.8-.3 1.7.1 3.1 1.1 4.5 1 1.1 2.1 2 3.6 2.1 1.4.1 2.8 0 4-1 1-.7 1.5-1.5 1.8-2.7h-4.8c-.1 0-.1 0-.1-.1V22c0-.1 0-.1.1-.1h8.7c.1 0 .1 0 .1.1 0 .4.1.8.1 1.3.2.2.2.6.2.9zm11.3-.1l-3.3.1v3.2c0 .1 0 .1-.1.1h-2.1c-.1 0-.1 0-.1-.1v-3.2h-3.2c-.1 0-.1 0-.1-.1V22c0-.1 0-.1.1-.1h3.2v-3.2c0-.1 0-.1.1-.1h2.1c.1 0 .1 0 .1.1v3.2h3.2c.1 0 .1 0 .1.1v2.1z"/></symbol><symbol viewBox="0 0 48 48" id="hamburger"><path d="M36 32H12v-2.7h24V32zm0-6.7H12v-2.7h24v2.7zm0-6.6H12V16h24v2.7z"/></symbol><symbol viewBox="0 0 48 48" id="headset"><path d="M36 31.7c0 2.2-1.8 4-4 4h-4V25h5.3v-2.7c0-5.2-4.2-9.3-9.3-9.3-5.2 0-9.3 4.2-9.3 9.3V25H20v10.7h-4c-2.2 0-4-1.8-4-4v-9.3c0-6.6 5.4-12 12-12s12 5.4 12 12v9.3z"/></symbol><symbol viewBox="0 0 48 48" id="home"><path d="M33.9 22.5v11.3h-7.1v-8.5h-5.6v8.5h-7.1V22.5H9.9L24 9.8l14.1 12.7h-4.2z"/></symbol><symbol viewBox="0 0 48 48" id="instagram"><circle cx="31.2" cy="16.8" r="1.6"/><path d="M24 17.1c-3.8 0-6.9 3.1-6.9 6.9s3.1 6.9 6.9 6.9 6.9-3.1 6.9-6.9-3.1-6.9-6.9-6.9zm0 11.4c-2.5 0-4.5-2-4.5-4.5s2-4.5 4.5-4.5 4.5 2 4.5 4.5-2 4.5-4.5 4.5z"/><path d="M36.8 15.2c-.3-.9-.8-1.6-1.6-2.4s-1.5-1.2-2.4-1.6c-.9-.3-1.8-.6-3.3-.6-1.4-.1-1.9-.1-5.6-.1-3.7 0-4.1 0-5.6.1-1.4.1-2.4.3-3.3.6-.9.3-1.6.8-2.4 1.6s-1.2 1.5-1.6 2.4c-.3.9-.6 1.8-.6 3.3-.1 1.4-.1 1.9-.1 5.6 0 3.7 0 4.1.1 5.6.1 1.4.3 2.4.6 3.3.3.9.8 1.6 1.6 2.4s1.5 1.2 2.4 1.6c.9.3 1.8.6 3.3.6 1.4.1 1.9.1 5.6.1s4.1 0 5.6-.1c1.4-.1 2.4-.3 3.3-.6.9-.3 1.6-.8 2.4-1.6s1.2-1.5 1.6-2.4c.3-.9.6-1.8.6-3.3.1-1.4.1-1.9.1-5.6s0-4.1-.1-5.6c0-1.5-.3-2.5-.6-3.3zM35 29.5c-.1 1.3-.3 2-.5 2.5-.2.6-.5 1.1-1 1.6s-.9.8-1.6 1c-.5.2-1.2.4-2.5.5-1.4.1-1.9.1-5.5.1s-4 0-5.5-.1c-1.3-.1-2-.3-2.5-.5-.6-.2-1.1-.5-1.6-1s-.8-.9-1-1.6c-.2-.5-.4-1.2-.5-2.5-.1-1.4-.1-1.9-.1-5.5s0-4 .1-5.5c.1-1.3.3-2 .5-2.5.2-.6.5-1.1 1-1.6s.9-.8 1.6-1c.5-.2 1.2-.4 2.5-.5 1.4-.1 1.8-.1 5.5-.1 3.6 0 4 0 5.5.1 1.3.1 2 .3 2.5.5.6.2 1.1.5 1.6 1s.8.9 1 1.6c.2.5.4 1.2.5 2.5.1 1.4.1 1.9.1 5.5s0 4-.1 5.5z"/></symbol><symbol viewBox="0 0 48 48" id="left"><path d="M29.8 33.2L27 36 15 24l12-12 2.8 2.8-9.1 9.2z"/></symbol><symbol viewBox="0 0 48 48" id="linkedin"><path d="M17.9 34.5H13V18.6h4.9v15.9zm-2.4-18.1c-1.6 0-3-1.3-3-3s1.3-3 3-3c1.6 0 3 1.3 3 3-.2 1.8-1.5 3-3 3zm16.1 18.1V26c0-2.3-.8-3.5-2.7-3.5-2 0-3 1.3-3 3.5v8.5h-4.8V18.6h4.8v2.1s1.4-2.7 4.8-2.7 5.8 2.1 5.8 6.4v10.2h-4.9z"/></symbol><symbol viewBox="0 0 48 48" id="magnifier"><path d="M28.1 27l-.4-.4c1.5-1.8 2.4-4 2.4-6.5 0-5.5-4.5-10-10-10s-10 4.5-10 10 4.5 10 10 10c2.5 0 4.8-.9 6.5-2.4l.4.4v1.2l7.7 7.7 2.3-2.3-7.7-7.7h-1.2zM20 27c-3.8 0-6.9-3.1-6.9-6.9s3.1-6.9 6.9-6.9 7 3 7 6.8-3.1 7-7 7z"/></symbol><symbol viewBox="0 0 48 48" id="mail"><path d="M33.6 14.4H14.4c-1.3 0-2.4 1.1-2.4 2.4v14.4c0 1.3 1.1 2.4 2.4 2.4h19.2c1.3 0 2.4-1.1 2.4-2.4V16.8c0-1.3-1.1-2.4-2.4-2.4zm0 4.8l-9.6 6-9.6-6v-2.4l9.6 6 9.6-6v2.4z"/></symbol><symbol viewBox="0 0 48 48" id="minus"><path d="M35.2 25.6H12.8v-3.2h22.4v3.2z"/></symbol><symbol viewBox="0 0 48 48" id="more"><circle cx="24" cy="24" r="3"/><circle cx="15.9" cy="24" r="3"/><circle cx="32.1" cy="24" r="3"/></symbol><symbol viewBox="0 0 48 48" id="plus"><path d="M35.2 25.6h-9.6v9.6h-3.2v-9.6h-9.6v-3.2h9.6v-9.6h3.2v9.6h9.6v3.2z"/></symbol><symbol viewBox="0 0 48 48" id="print"><path class="awst3" d="M16 12h15.9v5.3H16z"/><path d="M33.3 18.7H14.7c-2.3 0-4 1.7-4 4v8H16V36h16v-5.3h5.3v-8c0-2.2-1.7-4-4-4zm-4 14.6H18.8v-6.7h10.6v6.7zm4-9.3c-.9 0-1.3-.6-1.3-1.3s.6-1.3 1.3-1.3 1.3.7 1.3 1.3c0 .7-.6 1.3-1.3 1.3z"/></symbol><symbol viewBox="0 0 48 48" id="print-edition"><path d="M35 14.2c-1.4-.4-2.9-.6-4.3-.6-2.4 0-5 .5-6.8 1.8-1.8-1.4-4.4-1.8-6.7-1.8-2.4 0-5 .5-6.8 1.8v18c0 .3.3.6.6.6.1 0 .2-.1.3-.1 1.7-.8 4-1.4 5.8-1.4 2.4 0 5 .5 6.7 1.8 1.7-1 4.7-1.8 6.8-1.8 2 0 4.1.4 5.8 1.3.1.1.2.1.3.1.3 0 .6-.3.6-.6V15.4c-.5-.5-1.3-.9-2.3-1.2zm0 16.6c-1.4-.4-2.8-.6-4.3-.6-2.1 0-5.1.8-6.8 1.8V17.9c1.7-1 4.7-1.8 6.8-1.8 1.5 0 2.9.2 4.3.6v14.1z"/></symbol><symbol viewBox="0 0 100 100" id="purchase-rights"><text fill="#fff" x="-20" y="60" font-size="40">Reprints</text></symbol><symbol viewBox="0 0 48 48" id="radio"><path d="M33.5 17.5h-1.9l-.3-.1L15.7 11l-1.1-.4-.8 2.1 1.1.4 10.8 4.5H14.8c-1.8 0-3.2 1.4-3.2 3.2v10.7c0 1.8 1.4 3.2 3.2 3.2h18.7c1.8 0 3.2-1.4 3.2-3.2V20.7c-.1-1.8-1.4-3.2-3.2-3.2zm-7.2 14.3c-1.2 0-2.1-1-2.1-2.1s1-2.1 2.1-2.1 2.1 1 2.1 2.1-1 2.1-2.1 2.1zm6.1 0c-1.1 0-2.1-1-2.1-2.1s1-2.1 2.1-2.1 2.1 1 2.1 2.1-1 2.1-2.1 2.1zm2.2-6.7H13.9V21h20.7v4.1z"/></symbol><symbol viewBox="0 0 48 48" id="right"><path d="M17.6 14.8l2.8-2.8 12 12-12 12-2.8-2.8 9.1-9.2z"/></symbol><symbol viewBox="0 0 48 48" id="rss"><path d="M17.2 33.8c-1.7 0-3-1.4-3-3 0-1.7 1.4-3 3-3 1.7 0 3 1.4 3 3 .1 1.6-1.3 3-3 3zm6.8 0c0-5.4-4.4-9.8-9.8-9.8v-3.9c7.6 0 13.7 6.1 13.7 13.7H24zm7.9 0c0-9.8-7.9-17.7-17.7-17.7v-3.9c11.9 0 21.6 9.7 21.6 21.6h-3.9z"/></symbol><symbol viewBox="0 0 48 48" id="share"><path d="M17 24.1c0 .3-.1.6-.1.9l9.5 5.5c.7-.6 1.6-1 2.6-1 2.1 0 3.9 1.7 3.9 3.9 0 2.1-1.7 3.9-3.9 3.9-2.1 0-3.9-1.7-3.9-3.9 0-.3 0-.6.1-.9L15.7 27c-.7.7-1.7 1.1-2.7 1.1-2.2 0-4-1.8-4-4s1.8-4 4-4c1.1 0 2 .4 2.7 1.1l9.4-5.5c0-.4-.1-.7-.1-1 0-2.2 1.8-4 4-4s4 1.8 4 4-1.8 4-4 4c-1.1 0-2-.4-2.7-1.1l-9.4 5.5c0 .3.1.6.1 1z"/></symbol><symbol viewBox="0 0 48 48" id="tumblr"><path d="M29.8 34.6c-.8.8-2.4 1.4-4 1.4h-.2c-5.3 0-6.7-4-6.7-6.4v-7.3c0-.1 0-.1-.1-.1h-2.6c-.1 0-.1 0-.1-.1v-3.3s0-.1.1-.1c2.7-1.1 4.3-3.2 4.7-6.4 0-.3.1-.3.1-.3h3.4c.1 0 .1 0 .1.1V18c0 .1 0 .1.1.1h4.2c.1 0 .1 0 .1.1v3.9c0 .1 0 .1-.1.1h-4.3c-.1 0-.1 0-.1.1v7c0 1.6.8 2.4 2.3 2.4.6 0 1.3-.1 1.9-.4.1 0 .1 0 .1.1l1.1 3.2c.1-.1.1 0 0 0z"/></symbol><symbol viewBox="0 0 48 48" id="twitter"><path d="M33.6 18.9v.7c0 6.6-5 14-14 14-2.7 0-5.4-.9-7.6-2.3.4 0 .7.1 1.1.1 2.3 0 4.4-.9 6.1-2.1-2.1 0-4-1.4-4.6-3.4.3 0 .7.1.9.1.4 0 .9 0 1.3-.1-2.3-.4-4-2.4-4-4.9.7.4 1.4.7 2.3.7-1.3-.9-2.3-2.3-2.3-4 0-.9.3-1.7.7-2.4 2.4 3 6 5 10.3 5.1-.1-.4-.1-.9-.1-1.1 0-2.7 2.3-5 5-5 1.4 0 2.7.7 3.6 1.6 1.1-.3 2.3-.7 3.1-1.1-.4 1.1-1.1 2.1-2.3 2.7 1-.1 2-.4 2.9-.9-.6.8-1.6 1.8-2.4 2.3z"/></symbol><symbol viewBox="0 0 48 48" id="up"><path d="M14.8 30.4L12 27.6l12-12 12 12-2.8 2.8-9.2-9.1z"/></symbol><symbol viewBox="0 0 48 48" id="user"><circle cx="23.8" cy="16.5" r="6"/><path d="M35.8 34.5h-24v-3c0-4 8-6 12-6s12 2 12 6v3z"/></symbol><symbol viewBox="0 0 48 48" id="video"><path d="M24 8.6C15.5 8.6 8.6 15.5 8.6 24S15.4 39.4 24 39.4 39.4 32.5 39.4 24 32.5 8.6 24 8.6zm-3.8 24V15.4L31.7 24l-11.5 8.6z"/></symbol><symbol viewBox="0 0 48 48" id="whatsapp"><path d="M25.2 9.5C17.9 9.5 12 15.4 12 22.7c0 2.5.7 4.8 1.9 6.8l-2.4 7.1 7.3-2.3c1.9 1 4.1 1.6 6.4 1.6 7.3 0 13.3-5.9 13.3-13.2S32.6 9.5 25.2 9.5zm0 24.2c-2.3 0-4.4-.7-6.1-1.8l-4.3 1.4 1.4-4.1c-1.3-1.8-2.1-4.1-2.1-6.5 0-6.1 5-11.1 11.1-11.1s11.1 5 11.1 11.1c.1 6.1-4.9 11-11.1 11z"/><path d="M31.3 25.3c-.3-.2-1.9-.9-2.2-1-.3-.1-.5-.2-.7.2-.2.3-.8 1-1 1.3-.2.2-.4.2-.7.1-.3-.2-1.4-.5-2.6-1.6-1-.9-1.6-1.9-1.8-2.2-.2-.3 0-.5.1-.7.1-.1.3-.4.5-.6.2-.2.2-.3.3-.5.1-.2.1-.4 0-.6-.1-.2-.7-1.7-1-2.4-.3-.6-.5-.5-.7-.5h-.6c-.2 0-.6.1-.9.4-.3.3-1.1 1.1-1.1 2.7s1.2 3.1 1.3 3.3c.2.2 2.2 3.6 5.6 4.9 3.3 1.3 3.3.9 3.9.8.6-.1 1.9-.8 2.2-1.5.3-.8.3-1.4.2-1.5-.3-.4-.5-.4-.8-.6z"/></symbol><symbol viewBox="0 0 48 48" id="worldif"><path d="M12.5 13h2.8v23h-2.8V13zm3.4 23V13h2.8v23h-2.8zm5.8-23h15.8v2.3h-13V36h-2.8V13zm14.7 12.1H25.1v-9.2h12.4v2.3h-9.6v4.7h8.4l.1 2.2zM25.1 36V25.8h11.2V28h-8.4v8h-2.8z"/></symbol><symbol viewBox="0 0 48 48" id="youtube"><path d="M36.5 17.9c-.3-1.4-1.4-2.4-2.8-2.5-3.2-.4-6.5-.4-9.7-.4-3.2 0-6.5 0-9.7.4-1.4.2-2.5 1.2-2.8 2.5-.4 2-.5 4.1-.5 6.1s0 4.1.4 6.1c.3 1.4 1.4 2.4 2.8 2.5 3.3.4 6.6.4 9.8.4 3.2 0 6.5 0 9.7-.4 1.4-.2 2.5-1.2 2.8-2.5.5-2 .5-4.1.5-6.1-.1-2-.1-4.1-.5-6.1zM20.7 28v-8.5c2.7 1.4 5.5 2.8 8.2 4.3-2.8 1.4-5.5 2.8-8.2 4.2z"/></symbol></svg>